<svg width="491" height="603" viewBox="0 0 491 603" fill="none" xmlns="http://www.w3.org/2000/svg">
<path d="M22.9737 323.025C22.9737 323.025 161.242 208.807 350.66 209.019C540.092 209.225 250.878 578.092 250.878 578.092C250.884 578.08 266.91 557.26 266.91 557.26" stroke="white" stroke-opacity="0.12" stroke-width="0.877694"/>
<path d="M30.5092 314.537C30.5092 314.537 167.687 196.544 357.328 198.167C546.961 199.79 261.435 582.059 261.435 582.059C261.441 582.046 277.258 560.469 277.258 560.469" stroke="white" stroke-opacity="0.12" stroke-width="0.877694"/>
<path d="M38.252 305.784C38.252 305.784 174.351 184.004 364.208 187.044C554.063 190.086 272.199 585.744 272.199 585.744C272.205 585.732 287.814 563.396 287.814 563.396" stroke="white" stroke-opacity="0.12" stroke-width="0.877694"/>
<path d="M46.2882 296.641C46.2882 296.641 181.318 171.073 371.399 175.529C561.485 179.988 283.265 589.039 283.265 589.039C283.27 589.026 298.674 565.931 298.674 565.931" stroke="white" stroke-opacity="0.12" stroke-width="0.877694"/>
<path d="M54.3586 287.452C54.3586 287.452 188.322 158.106 378.636 163.977C568.949 169.849 294.367 592.299 294.367 592.299C294.373 592.286 309.571 568.433 309.571 568.433" stroke="white" stroke-opacity="0.12" stroke-width="0.877694"/>
<path d="M62.4751 278.217C62.4751 278.217 195.385 145.079 385.942 152.364C576.506 159.652 305.531 595.502 305.531 595.502C305.537 595.49 320.53 570.878 320.53 570.878" stroke="white" stroke-opacity="0.12" stroke-width="0.877694"/>
<path d="M70.6145 268.931C70.6145 268.931 202.478 131.999 393.301 140.702C584.124 149.405 316.738 598.661 316.738 598.661C316.745 598.648 331.534 573.278 331.534 573.278" stroke="white" stroke-opacity="0.12" stroke-width="0.877694"/>
<path d="M78.7864 259.606C78.7864 259.606 209.613 118.88 400.695 129.007C591.774 139.122 327.973 601.793 327.973 601.793C327.979 601.779 342.567 575.648 342.567 575.648" stroke="white" stroke-opacity="0.12" stroke-width="0.877694"/>
<path d="M293.481 123.937C293.481 123.937 64.6044 195.859 4.69156 363.818C-55.2197 531.763 633.941 438.899 633.941 438.899L595.117 443.876" stroke="white" stroke-opacity="0.12" stroke-width="0.877694"/>
<path d="M304.115 115.916C304.115 115.916 79.2231 189.457 17.919 356.689C-43.3883 523.921 631.761 425.241 631.761 425.241L593.731 430.548" stroke="white" stroke-opacity="0.12" stroke-width="0.877694"/>
<path d="M314.839 106.544C314.839 106.544 93.932 181.701 31.2412 348.208C-31.4532 514.713 629.666 410.23 629.666 410.23L592.43 415.866" stroke="white" stroke-opacity="0.12" stroke-width="0.877694"/>
<path d="M325.664 97.0766C325.664 97.0766 108.745 173.849 44.6663 339.64C-19.4163 505.429 627.676 395.139 627.676 395.139L591.235 401.104" stroke="white" stroke-opacity="0.12" stroke-width="0.877694"/>
<path d="M336.578 87.514C336.578 87.514 123.655 165.887 58.192 330.962C-7.26785 496.024 625.791 379.943 625.791 379.943L590.145 386.236" stroke="white" stroke-opacity="0.12" stroke-width="0.877694"/>
<path d="M347.593 77.9082C347.593 77.9082 138.661 157.893 71.8249 322.239C4.98719 486.584 624.018 364.705 624.018 364.705L589.166 371.327" stroke="white" stroke-opacity="0.12" stroke-width="0.877694"/>
<path d="M359.037 68.5598C359.037 68.5598 154.096 150.153 85.8935 313.77C17.6879 477.387 622.698 349.728 622.698 349.728L588.641 356.677" stroke="white" stroke-opacity="0.12" stroke-width="0.877694"/>
<path d="M370.645 59.2422C370.645 59.2422 169.7 142.442 100.136 305.33C30.5633 468.229 621.537 334.795 621.537 334.795L588.275 342.072" stroke="white" stroke-opacity="0.12" stroke-width="0.877694"/>
<path d="M382.967 50.4822C382.967 50.4822 186.023 135.275 115.093 297.457C44.1662 459.626 621.101 320.423 621.101 320.423L588.633 328.026" stroke="white" stroke-opacity="0.12" stroke-width="0.877694"/>
<path d="M395.837 42.1364C395.837 42.1364 202.893 128.532 130.614 289.984C58.3331 451.434 621.234 306.455 621.234 306.455L589.561 314.386" stroke="white" stroke-opacity="0.12" stroke-width="0.877694"/>
<path d="M409.229 34.1826C409.229 34.1826 220.286 122.18 146.667 282.899C73.0451 443.619 621.904 292.884 621.904 292.884L591.026 301.141" stroke="white" stroke-opacity="0.12" stroke-width="0.877694"/>
<path d="M423.086 26.6041C423.086 26.6041 238.148 116.2 163.195 276.188C88.2346 436.188 623.067 279.694 623.067 279.694L592.983 288.277" stroke="white" stroke-opacity="0.12" stroke-width="0.877694"/>
<path d="M437.011 19.4634C437.011 19.4634 256.086 110.644 179.798 269.923C103.514 429.191 624.293 266.965 624.293 266.965L595.005 275.873" stroke="white" stroke-opacity="0.12" stroke-width="0.877694"/>
<path d="M450.943 12.7195C450.943 12.7195 274.028 105.494 196.425 264.041C118.821 422.587 625.556 254.612 625.556 254.612L597.063 263.845" stroke="white" stroke-opacity="0.12" stroke-width="0.877694"/>
<path d="M463.921 6.58525C463.921 6.58525 291.022 100.953 212.114 258.766C133.204 416.579 625.886 242.873 625.886 242.873L598.188 252.431" stroke="white" stroke-opacity="0.12" stroke-width="0.877694"/>
<path d="M476.065 1.00001C476.065 1.00001 307.19 96.9452 226.981 254.036C146.772 411.127 625.416 231.69 625.416 231.69L598.514 241.572" stroke="white" stroke-opacity="0.12" stroke-width="0.877694"/>
</svg>
