<svg width="495" height="618" viewBox="0 0 495 618" fill="none" xmlns="http://www.w3.org/2000/svg">
<path d="M24.9141 331.176C24.9141 331.176 177.03 214.067 385.417 214.285C593.82 214.496 275.642 592.7 275.642 592.7C275.649 592.687 293.28 571.341 293.28 571.341" stroke="white" stroke-opacity="0.12" stroke-width="0.877694"/>
<path d="M33.2044 322.473C33.2044 322.473 184.12 201.494 392.753 203.158C601.377 204.822 287.256 596.767 287.256 596.767C287.263 596.754 304.664 574.63 304.664 574.63" stroke="white" stroke-opacity="0.12" stroke-width="0.877694"/>
<path d="M41.722 313.499C41.722 313.499 191.451 188.636 400.321 191.754C609.189 194.872 299.098 600.545 299.098 600.545C299.104 600.532 316.276 577.631 316.276 577.631" stroke="white" stroke-opacity="0.12" stroke-width="0.877694"/>
<path d="M50.5632 304.124C50.5632 304.124 199.115 175.378 408.233 179.947C617.354 184.518 311.272 603.923 311.272 603.923C311.278 603.909 328.224 580.231 328.224 580.231" stroke="white" stroke-opacity="0.12" stroke-width="0.877694"/>
<path d="M59.4419 294.703C59.4419 294.703 206.821 162.082 416.194 168.102C625.566 174.122 323.486 607.265 323.486 607.265C323.493 607.252 340.213 582.795 340.213 582.795" stroke="white" stroke-opacity="0.12" stroke-width="0.877694"/>
<path d="M68.3713 285.234C68.3713 285.234 214.591 148.726 424.232 156.195C633.88 163.668 335.768 610.55 335.768 610.55C335.774 610.537 352.269 585.302 352.269 585.302" stroke="white" stroke-opacity="0.12" stroke-width="0.877694"/>
<path d="M77.3256 275.713C77.3256 275.713 222.395 135.315 432.328 144.238C642.261 153.162 348.098 613.789 348.098 613.789C348.105 613.776 364.375 587.763 364.375 587.763" stroke="white" stroke-opacity="0.12" stroke-width="0.877694"/>
<path d="M86.3161 266.152C86.3161 266.152 230.244 121.864 440.462 132.247C650.678 142.618 360.457 617 360.457 617C360.464 616.986 376.513 590.194 376.513 590.194" stroke="white" stroke-opacity="0.12" stroke-width="0.877694"/>
<path d="M322.511 127.049C322.511 127.049 70.7138 200.791 4.80095 373.001C-61.1101 545.197 697.067 449.982 697.067 449.982L654.355 455.086" stroke="white" stroke-opacity="0.12" stroke-width="0.877694"/>
<path d="M334.211 118.825C334.211 118.825 86.7962 194.227 19.3527 365.693C-48.0942 537.157 694.669 435.979 694.669 435.979L652.83 441.421" stroke="white" stroke-opacity="0.12" stroke-width="0.877694"/>
<path d="M346.008 109.215C346.008 109.215 102.978 186.275 34.0092 356.996C-34.9638 527.716 692.364 420.589 692.364 420.589L651.399 426.367" stroke="white" stroke-opacity="0.12" stroke-width="0.877694"/>
<path d="M357.917 99.5086C357.917 99.5086 119.275 178.225 48.779 348.211C-21.7213 518.197 690.175 405.115 690.175 405.115L650.084 411.231" stroke="white" stroke-opacity="0.12" stroke-width="0.877694"/>
<path d="M369.925 89.704C369.925 89.704 135.678 170.061 63.6594 339.314C-8.356 508.553 688.101 389.534 688.101 389.534L648.885 395.987" stroke="white" stroke-opacity="0.12" stroke-width="0.877694"/>
<path d="M382.043 79.8551C382.043 79.8551 152.186 161.864 78.6572 330.37C5.12598 498.875 686.15 373.912 686.15 373.912L647.808 380.7" stroke="white" stroke-opacity="0.12" stroke-width="0.877694"/>
<path d="M394.633 70.27C394.633 70.27 169.168 153.928 94.1349 321.687C19.0988 489.445 684.698 358.555 684.698 358.555L647.23 365.68" stroke="white" stroke-opacity="0.12" stroke-width="0.877694"/>
<path d="M407.404 60.7168C407.404 60.7168 186.334 146.023 109.804 313.034C33.2637 480.056 683.421 343.244 683.421 343.244L646.827 350.705" stroke="white" stroke-opacity="0.12" stroke-width="0.877694"/>
<path d="M420.959 51.7347C420.959 51.7347 204.292 138.674 126.258 304.961C48.2285 471.234 682.94 328.508 682.94 328.508L647.221 336.304" stroke="white" stroke-opacity="0.12" stroke-width="0.877694"/>
<path d="M435.118 43.1778C435.118 43.1778 222.851 131.76 143.334 297.298C63.8143 462.835 683.087 314.187 683.087 314.187L648.242 322.318" stroke="white" stroke-opacity="0.12" stroke-width="0.877694"/>
<path d="M449.851 35.0228C449.851 35.0228 241.986 125.247 160.994 290.035C79.9994 454.822 683.824 300.272 683.824 300.272L649.854 308.739" stroke="white" stroke-opacity="0.12" stroke-width="0.877694"/>
<path d="M465.096 27.2523C465.096 27.2523 261.637 119.116 179.178 283.154C96.7106 447.203 685.104 286.749 685.104 286.749L652.008 295.548" stroke="white" stroke-opacity="0.12" stroke-width="0.877694"/>
<path d="M480.415 19.9307C480.415 19.9307 281.371 113.419 197.444 276.73C113.52 440.029 686.453 273.696 686.453 273.696L654.231 282.83" stroke="white" stroke-opacity="0.12" stroke-width="0.877694"/>
<path d="M495.742 13.0166C495.742 13.0166 301.11 108.14 215.736 270.699C130.36 433.259 687.842 261.032 687.842 261.032L656.495 270.499" stroke="white" stroke-opacity="0.12" stroke-width="0.877694"/>
<path d="M510.02 6.72711C510.02 6.72711 319.806 103.483 232.995 265.29C146.183 427.098 688.206 248.995 688.206 248.995L657.734 258.796" stroke="white" stroke-opacity="0.12" stroke-width="0.877694"/>
<path d="M523.38 1.00009C523.38 1.00009 337.593 99.3738 249.351 260.441C161.11 421.508 687.688 237.529 687.688 237.529L658.092 247.661" stroke="white" stroke-opacity="0.12" stroke-width="0.877694"/>
</svg>
