<svg width="640" height="742" viewBox="0 0 640 742" fill="none" xmlns="http://www.w3.org/2000/svg">
<path d="M45.3439 504.84C45.3439 504.84 324.375 326.134 706.627 326.466C1088.91 326.789 505.264 903.918 505.264 903.918C505.276 903.899 537.616 871.324 537.616 871.324" stroke="white" stroke-opacity="0.1" stroke-width="0.877694"/>
<path d="M60.5509 491.56C60.5509 491.56 337.38 306.949 720.084 309.487C1102.77 312.027 526.568 910.125 526.568 910.125C526.579 910.105 558.499 876.345 558.499 876.345" stroke="white" stroke-opacity="0.1" stroke-width="0.877694"/>
<path d="M76.176 477.865C76.176 477.865 350.829 287.328 733.967 292.085C1117.1 296.844 548.29 915.89 548.29 915.89C548.301 915.871 579.801 880.924 579.801 880.924" stroke="white" stroke-opacity="0.1" stroke-width="0.877694"/>
<path d="M92.3933 463.56C92.3933 463.56 364.888 267.096 748.48 274.068C1132.08 281.044 570.621 921.044 570.621 921.044C570.633 921.024 601.717 884.891 601.717 884.891" stroke="white" stroke-opacity="0.1" stroke-width="0.877694"/>
<path d="M108.68 449.183C108.68 449.183 379.023 246.808 763.084 255.993C1147.14 265.181 593.026 926.146 593.026 926.146C593.038 926.125 623.708 888.805 623.708 888.805" stroke="white" stroke-opacity="0.1" stroke-width="0.877694"/>
<path d="M125.059 434.733C125.059 434.733 393.276 226.425 777.828 237.823C1162.39 249.227 615.555 931.158 615.555 931.158C615.567 931.137 645.824 892.63 645.824 892.63" stroke="white" stroke-opacity="0.1" stroke-width="0.877694"/>
<path d="M141.485 420.205C141.485 420.205 407.591 205.961 792.679 219.577C1177.77 233.195 638.172 936.1 638.172 936.1C638.185 936.08 668.031 896.385 668.031 896.385" stroke="white" stroke-opacity="0.1" stroke-width="0.877694"/>
<path d="M157.976 405.615C157.976 405.615 421.989 185.434 807.599 201.28C1193.21 217.106 660.844 941 660.844 941C660.856 940.978 690.295 900.094 690.295 900.094" stroke="white" stroke-opacity="0.1" stroke-width="0.877694"/>
<path d="M591.238 193.347C591.238 193.347 129.356 305.876 8.44991 568.664C-112.453 831.431 1278.3 686.135 1278.3 686.135L1199.95 693.923" stroke="white" stroke-opacity="0.1" stroke-width="0.877694"/>
<path d="M612.699 180.798C612.699 180.798 158.857 295.86 35.1432 557.512C-88.5771 819.162 1273.9 664.767 1273.9 664.767L1197.15 673.071" stroke="white" stroke-opacity="0.1" stroke-width="0.877694"/>
<path d="M634.339 166.134C634.339 166.134 188.54 283.726 62.028 544.241C-64.4917 804.755 1269.67 641.282 1269.67 641.282L1194.53 650.1" stroke="white" stroke-opacity="0.1" stroke-width="0.877694"/>
<path d="M656.184 151.321C656.184 151.321 218.434 271.44 89.1203 530.835C-40.2009 790.229 1265.66 617.669 1265.66 617.669L1192.12 627.002" stroke="white" stroke-opacity="0.1" stroke-width="0.877694"/>
<path d="M678.21 136.36C678.21 136.36 248.522 258.982 116.416 517.258C-15.6846 775.513 1261.85 593.893 1261.85 593.893L1189.92 603.739" stroke="white" stroke-opacity="0.1" stroke-width="0.877694"/>
<path d="M700.439 121.331C700.439 121.331 278.804 246.475 143.927 503.61C9.04627 760.745 1258.27 570.054 1258.27 570.054L1187.94 580.413" stroke="white" stroke-opacity="0.1" stroke-width="0.877694"/>
<path d="M723.532 106.704C723.532 106.704 309.954 234.364 172.318 490.36C34.6769 746.354 1255.61 546.62 1255.61 546.62L1186.88 557.492" stroke="white" stroke-opacity="0.1" stroke-width="0.877694"/>
<path d="M746.959 92.1259C746.959 92.1259 341.443 222.301 201.06 477.155C60.6599 732.027 1253.27 523.256 1253.27 523.256L1186.14 534.641" stroke="white" stroke-opacity="0.1" stroke-width="0.877694"/>
<path d="M771.824 78.4197C771.824 78.4197 374.384 211.087 231.245 464.836C88.1113 718.565 1252.39 500.768 1252.39 500.768L1186.87 512.664" stroke="white" stroke-opacity="0.1" stroke-width="0.877694"/>
<path d="M797.796 65.3619C797.796 65.3619 408.427 200.537 262.566 453.143C116.701 705.748 1252.66 478.915 1252.66 478.915L1188.74 491.323" stroke="white" stroke-opacity="0.1" stroke-width="0.877694"/>
<path d="M824.822 52.918C824.822 52.918 443.528 190.598 294.961 442.06C146.39 693.522 1254.01 457.682 1254.01 457.682L1191.69 470.601" stroke="white" stroke-opacity="0.1" stroke-width="0.877694"/>
<path d="M852.785 41.0603C852.785 41.0603 479.573 181.242 328.316 431.56C177.043 681.895 1256.36 437.045 1256.36 437.045L1195.64 450.473" stroke="white" stroke-opacity="0.1" stroke-width="0.877694"/>
<path d="M880.886 29.8878C880.886 29.8878 515.773 172.548 361.822 421.757C207.877 670.947 1258.83 417.128 1258.83 417.128L1199.72 431.066" stroke="white" stroke-opacity="0.1" stroke-width="0.877694"/>
<path d="M909.002 19.3366C909.002 19.3366 551.981 164.492 395.376 412.554C238.767 660.615 1261.38 397.801 1261.38 397.801L1203.88 412.248" stroke="white" stroke-opacity="0.1" stroke-width="0.877694"/>
<path d="M935.192 9.73879C935.192 9.73879 586.276 157.386 427.035 404.3C267.792 651.214 1262.04 379.434 1262.04 379.434L1206.15 394.389" stroke="white" stroke-opacity="0.1" stroke-width="0.877694"/>
<path d="M959.699 0.999839C959.699 0.999839 618.903 151.116 457.037 396.9C295.174 642.684 1261.1 361.937 1261.1 361.937L1206.81 377.399" stroke="white" stroke-opacity="0.1" stroke-width="0.877694"/>
</svg>
